<svg width="24" height="24" viewBox="0 0 24 24" fill="none" xmlns="http://www.w3.org/2000/svg">
<g id="vuesax/linear/home-2">
<path id="Union" fill-rule="evenodd" clip-rule="evenodd" d="M14.4501 2.10573C13.5961 1.5079 12.5191 1.24483 11.4837 1.26911C10.4482 1.29339 9.38428 1.60668 8.55955 2.24814L8.55901 2.24856L3.16954 6.44814L3.16918 6.44843L3.16901 6.44856C2.60552 6.887 2.134 7.53633 1.80418 8.20855C1.47441 8.88067 1.25 9.64968 1.25 10.3602V17.7702C1.25 20.5021 3.47347 22.7402 6.21 22.7402H17.79C20.5254 22.7402 22.75 20.5032 22.75 17.7802V10.5002C22.75 9.74295 22.5017 8.93348 22.1361 8.2331C21.7707 7.53301 21.2491 6.86737 20.6295 6.43532L20.6288 6.43486L14.4504 2.10592L14.4501 2.10573ZM9.48046 3.43217L9.48071 3.43197C10.006 3.02355 10.7419 2.78692 11.5188 2.7687C12.2958 2.75048 13.0437 2.95235 13.5896 3.33439L13.5899 3.33458L19.7696 7.66439L19.7712 7.66546C20.1413 7.92342 20.5195 8.37755 20.8064 8.92722C21.0933 9.47683 21.25 10.0474 21.25 10.5002V17.7802C21.25 19.6771 19.6946 21.2402 17.79 21.2402H6.21C4.30653 21.2402 2.75 19.6783 2.75 17.7702V10.3602C2.75 9.94063 2.89059 9.39965 3.15082 8.86927C3.4109 8.33919 3.75418 7.89372 4.09046 7.63217L4.09099 7.63176L9.48046 3.43217ZM9.25 8.99999C9.25 8.86192 9.36193 8.74999 9.5 8.74999H14.5C14.6381 8.74999 14.75 8.86192 14.75 8.99999V12.8C14.75 13.3247 15.1753 13.75 15.7 13.75H17.25V19C17.25 19.1381 17.1381 19.25 17 19.25H16C15.8619 19.25 15.75 19.1381 15.75 19V17.5C15.75 16.8096 15.1904 16.25 14.5 16.25H9.5C8.80964 16.25 8.25 16.8096 8.25 17.5V19C8.25 19.1381 8.13807 19.25 8 19.25H7C6.86193 19.25 6.75 19.1381 6.75 19V13.75H8.3C8.82467 13.75 9.25 13.3247 9.25 12.8V8.99999ZM9.5 7.24999C8.5335 7.24999 7.75 8.0335 7.75 8.99999V12.25H6.5C5.80964 12.25 5.25 12.8096 5.25 13.5V19C5.25 19.9665 6.0335 20.75 7 20.75H8C8.9665 20.75 9.75 19.9665 9.75 19V17.75H14.25V19C14.25 19.9665 15.0335 20.75 16 20.75H17C17.9665 20.75 18.75 19.9665 18.75 19V13.5C18.75 12.8096 18.1904 12.25 17.5 12.25H16.25V8.99999C16.25 8.0335 15.4665 7.24999 14.5 7.24999H9.5Z" fill="white"/>
</g>
</svg>
