<svg width="32" height="24" viewBox="0 0 32 24" fill="none" xmlns="http://www.w3.org/2000/svg">
<mask id="mask0_1012_36004" style="mask-type:luminance" maskUnits="userSpaceOnUse" x="0" y="0" width="32" height="24">
<rect width="32" height="24" fill="white"/>
</mask>
<g mask="url(#mask0_1012_36004)">
<path fill-rule="evenodd" clip-rule="evenodd" d="M0 0V24H32V0H0Z" fill="#F7FCFF"/>
<mask id="mask1_1012_36004" style="mask-type:luminance" maskUnits="userSpaceOnUse" x="0" y="0" width="32" height="24">
<path fill-rule="evenodd" clip-rule="evenodd" d="M0 0V24H32V0H0Z" fill="white"/>
</mask>
<g mask="url(#mask1_1012_36004)">
<path fill-rule="evenodd" clip-rule="evenodd" d="M0 0V8H32V0H0Z" fill="#5EAA22"/>
<path fill-rule="evenodd" clip-rule="evenodd" d="M0 16V24H32V16H0Z" fill="#E31D1C"/>
<path fill-rule="evenodd" clip-rule="evenodd" d="M4.60029 16.3921V17.026H2.26953V16.3921H4.60029ZM0.565702 17.9843H0.358728V17.7311H0.813422V18.6182H1.39258V18.6248H1.95402V16.7832H1.59529V17.9909H1.54024V16.6874H1.18151V17.9843H1.17215V17.7311V16.6874H0.813422V17.0972H0V18.6182H0.179364H0.565702V17.9843ZM2.06653 18.3396H2.42525V17.7112H2.82525V18.6248H3.95067V17.0783H3.37354V17.7122H3.59194V17.991H3.18398V17.0773H2.06653V18.3396ZM4.35849 17.9843H4.56546V18.6182H4.17912H3.99976V17.0972H4.81318V16.6874H5.17191V17.7311V17.9843H5.18127V16.6874H5.54V17.9911H5.59539V16.7834H5.95412V18.625H5.39268V18.6182H4.81318V17.7311H4.35849V17.9843ZM8.60044 16.3921V17.026H6.26967V16.3921H8.60044ZM6.06629 18.3396H6.42502V17.7112H6.82501V18.6248H7.95043V17.0783H7.3733V17.7122H7.5917V17.991H7.18374V17.0773H6.06629V18.3396ZM8.43002 17.9844H8.63699V18.6183H8.25065H8.07129V17.0973H8.88471V16.6875H9.24344V17.7312V17.9844H9.2528V16.6875H9.61153V17.9911H9.66658V16.7834H10.0253V18.625H9.46386V18.6183H8.88471V17.7312H8.43002V17.9844ZM12.6716 16.3921V17.026H10.3409V16.3921H12.6716ZM10.1375 18.3396H10.4962V17.7112H10.8962V18.6248H12.0216V17.0783H11.4445V17.7122H11.6629V17.991H11.2549V17.0773H10.1375V18.3396ZM12.429 17.9844H12.636V18.6183H12.2497H12.0703V17.0973H12.8837V16.6875H13.2425V17.7312V17.9844H13.2518V16.6875H13.6106V17.9909H13.6666V16.7832H14.0253V18.6248H13.4639V18.6183H12.8837V17.7312H12.429V17.9844ZM16.6714 16.3921V17.026H14.3406V16.3921H16.6714ZM14.1377 18.3395H14.4964V17.711H14.8964V18.6247H16.0218V17.0782H15.4447V17.712H15.6631V17.9908H15.2552V17.0771H14.1377V18.3395ZM16.4292 17.9843H16.6362V18.6182H16.2498H16.0705V17.0972H16.8839V16.6874H17.2426V17.7311V17.9843H17.252V16.6874H17.6107V17.9909H17.6666V16.7832H18.0253V18.6248H17.4639V18.6182H16.8839V17.7311H16.4292V17.9843ZM20.6716 16.3921V17.026H18.3408V16.3921H20.6716ZM18.1367 18.3395H18.4954V17.711H18.8954V18.6247H20.0209V17.0782H19.4437V17.712H19.6621V17.9908H19.2542V17.0771H18.1367V18.3395ZM20.5004 17.9843H20.7074V18.6182H20.321H20.1417V17.0972H20.9551V16.6874H21.3138V17.7311V17.9843H21.3232V16.6874H21.6819V17.9909H21.7369V16.7832H22.0956V18.6248H21.5342V18.6182H20.9551V17.7311H20.5004V17.9843ZM24.7419 16.3921V17.026H22.4111V16.3921H24.7419ZM22.2082 18.3396H22.5669V17.7112H22.9669V18.6248H24.0923V17.0783H23.5152V17.7122H23.7336V17.991H23.3256V17.0773H22.2082V18.3396ZM24.5716 17.9843H24.7785V18.6182H24.3922H24.2128V17.0972H25.0263V16.6874H25.385V17.7311V17.9843H25.3944V16.6874H25.7531V17.9909H25.8082V16.7832H26.1669V18.6248H25.6055V18.6182H25.0263V17.7311H24.5716V17.9843ZM28.8132 16.3921V17.026H26.4824V16.3921H28.8132ZM26.2794 18.3396H26.6381V17.7112H27.0381V18.6248H28.1635V17.0783H27.5864V17.7122H27.8048V17.991H27.3968V17.0773H26.2794V18.3396ZM28.6427 17.9843H28.8497V18.6182H28.4634H28.284V17.0972H29.0974V16.6874H29.4562V17.7311V17.9843H29.4655V16.6874H29.8243V17.9911H29.8797V16.7834H30.2384V18.625H29.6769V18.6182H29.0974V17.7311H28.6427V17.9843ZM32.8847 16.3921V17.026H30.5539V16.3921H32.8847ZM30.3505 18.3396H30.7093V17.7112H31.1093V18.6248H32.2347V17.0783H31.6576V17.7122H31.876V17.991H31.468V17.0773H30.3505V18.3396ZM32.6429 17.9844H32.8499V18.6183H32.4635H32.2842V17.0973H33.0976V16.6875H33.4563V17.7312V17.9844H33.4657V16.6875H33.8244V17.9911H33.8794V16.7834H34.2381V18.625H33.6767V18.6183H33.0976V17.7312H32.6429V17.9844ZM36.8845 16.3921V17.026H34.5537V16.3921H36.8845ZM34.3506 18.3395H34.7093V17.711H35.1093V18.6247H36.2347V17.0782H35.6576V17.712H35.876V17.9908H35.468V17.0771H34.3506V18.3395ZM36.8565 17.9843H37.0635V18.6182H36.6772H36.4978V17.0972H37.3112V16.6874H37.67V17.7311V17.9843H37.6793V16.6874H38.0381V17.9911H38.0934V16.7834H38.4522V18.625H37.8907V18.6182H37.3112V17.7311H36.8565V17.9843ZM41.0985 16.3921V17.026H38.7677V16.3921H41.0985ZM38.5643 18.3396H38.9231V17.7112H39.3231V18.6248H40.4485V17.0783H39.8713V17.7122H40.0897V17.991H39.6818V17.0773H38.5643V18.3396Z" fill="#F7FCFF"/>
<path fill-rule="evenodd" clip-rule="evenodd" d="M0.484082 5.39209V6.02597H-1.84668V5.39209H0.484082ZM-3.55051 6.98432H-3.75748V6.73109H-3.30279V7.6182H-2.72363V7.62479H-2.16219V5.7832H-2.52092V6.99091H-2.57597V5.68742H-2.9347V6.98432H-2.94406V6.73109V5.68742H-3.30279V6.09721H-4.11621V7.6182H-3.93685H-3.55051V6.98432ZM-2.04968 7.33964H-1.69096V6.71119H-1.29096V7.62484H-0.165545V6.07832H-0.742676V6.7122H-0.524274V6.99096H-0.932228V6.07731H-2.04968V7.33964ZM0.242278 6.98432H0.449251V7.6182H0.0629139H-0.116451V6.09721H0.696971V5.68742H1.0557V6.73109V6.98432H1.06506V5.68742H1.42379V6.99112H1.47918V5.78342H1.83791V7.62501H1.27647V7.6182H0.696971V6.73109H0.242278V6.98432ZM4.48423 5.39209V6.02597H2.15346V5.39209H4.48423ZM1.95008 7.33964H2.3088V6.71119H2.7088V7.62484H3.83422V6.07832H3.25708V6.7122H3.47549V6.99096H3.06753V6.07731H1.95008V7.33964ZM4.31381 6.9844H4.52078V7.61828H4.13444H3.95508V6.09729H4.7685V5.6875H5.12723V6.73117V6.9844H5.13659V5.6875H5.49532V6.99112H5.55037V5.78342H5.9091V7.62501H5.34765V7.61828H4.7685V6.73117H4.31381V6.9844ZM8.55541 5.39209V6.02597H6.22465V5.39209H8.55541ZM6.02126 7.33964H6.37999V6.71119H6.77999V7.62484H7.9054V6.07832H7.32827V6.7122H7.54667V6.99096H7.13872V6.07731H6.02126V7.33964ZM8.31283 6.9844H8.5198V7.61828H8.13347H7.9541V6.09729H8.76752V5.6875H9.12625V6.73117V6.9844H9.13562V5.6875H9.49434V6.99091H9.55037V5.7832H9.9091V7.62479H9.34766V7.61828H8.76752V6.73117H8.31283V6.9844ZM12.5552 5.39209V6.02597H10.2244V5.39209H12.5552ZM10.0215 7.33948H10.3802V6.71103H10.7802V7.62468H11.9056V6.07816H11.3285V6.71204H11.5469V6.9908H11.1389V6.07715H10.0215V7.33948ZM12.313 6.98432H12.52V7.6182H12.1336H11.9543V6.09721H12.7677V5.68742H13.1264V6.73109V6.98432H13.1358V5.68742H13.4945V6.99091H13.5504V5.7832H13.9091V7.62479H13.3477V7.6182H12.7677V6.73109H12.313V6.98432ZM16.5554 5.39209V6.02597H14.2246V5.39209H16.5554ZM14.0205 7.33948H14.3792V6.71103H14.7792V7.62468H15.9046V6.07816H15.3275V6.71204H15.5459V6.9908H15.138V6.07715H14.0205V7.33948ZM16.3842 6.98432H16.5911V7.6182H16.2048H16.0254V6.09721H16.8389V5.68742H17.1976V6.73109V6.98432H17.207V5.68742H17.5657V6.99091H17.6207V5.7832H17.9794V7.62479H17.418V7.6182H16.8389V6.73109H16.3842V6.98432ZM20.6257 5.39209V6.02597H18.2949V5.39209H20.6257ZM18.092 7.33964H18.4507V6.71119H18.8507V7.62484H19.9761V6.07832H19.399V6.7122H19.6174V6.99096H19.2094V6.07731H18.092V7.33964ZM20.4554 6.98432H20.6623V7.6182H20.276H20.0966V6.09721H20.91V5.68742H21.2688V6.73109V6.98432H21.2781V5.68742H21.6369V6.99091H21.692V5.7832H22.0507V7.62479H21.4893V7.6182H20.91V6.73109H20.4554V6.98432ZM24.697 5.39209V6.02597H22.3662V5.39209H24.697ZM22.1632 7.33964H22.5219V6.71119H22.9219V7.62484H24.0473V6.07832H23.4702V6.7122H23.6886V6.99096H23.2806V6.07731H22.1632V7.33964ZM24.5265 6.98432H24.7335V7.6182H24.3472H24.1678V6.09721H24.9812V5.68742H25.34V6.73109V6.98432H25.3493V5.68742H25.7081V6.99112H25.7634V5.78342H26.1222V7.62501H25.5607V7.6182H24.9812V6.73109H24.5265V6.98432ZM28.7685 5.39209V6.02597H26.4377V5.39209H28.7685ZM26.2343 7.33964H26.5931V6.71119H26.9931V7.62484H28.1185V6.07832H27.5413V6.7122H27.7597V6.99096H27.3518V6.07731H26.2343V7.33964ZM28.5267 6.9844H28.7337V7.61828H28.3473H28.168V6.09729H28.9814V5.6875H29.3401V6.73117V6.9844H29.3495V5.6875H29.7082V6.99112H29.7632V5.78342H30.1219V7.62501H29.5605V7.61828H28.9814V6.73117H28.5267V6.9844ZM32.7682 5.39209V6.02597H30.4375V5.39209H32.7682ZM30.2344 7.33948H30.5931V6.71103H30.9931V7.62468H32.1185V6.07816H31.5414V6.71204H31.7598V6.9908H31.3518V6.07715H30.2344V7.33948ZM32.7403 6.98432H32.9473V7.6182H32.561H32.3816V6.09721H33.195V5.68742H33.5538V6.73109V6.98432H33.5631V5.68742H33.9218V6.99112H33.9772V5.78342H34.336V7.62501H33.7745V7.6182H33.195V6.73109H32.7403V6.98432ZM36.9823 5.39209V6.02597H34.6515V5.39209H36.9823ZM34.4481 7.33964H34.8069V6.71119H35.2069V7.62484H36.3323V6.07832H35.7551V6.7122H35.9735V6.99096H35.5656V6.07731H34.4481V7.33964Z" fill="#F7FCFF"/>
<path fill-rule="evenodd" clip-rule="evenodd" d="M14.6055 8.25C14.6055 8.25 15.0328 8.475 15.4702 8.475C15.9076 8.475 16.3476 8.25 16.3476 8.25V8.55C16.3476 8.55 15.8672 8.775 15.4417 8.775C15.0162 8.775 14.6055 8.55 14.6055 8.55V8.25ZM11.4561 11.7906C11.4561 10.0126 13.898 8.85 13.898 8.85C13.898 8.85 12.4866 9.60621 12.4866 11.7161C12.4866 13.826 13.2193 14.7397 13.2193 14.7397C13.2193 14.7397 11.4561 13.5686 11.4561 11.7906ZM19.6934 11.6926C19.6934 9.91458 17.2537 8.8501 17.2537 8.8501C17.2537 8.8501 18.6651 9.6063 18.6651 11.7162C18.6651 13.8261 17.9324 14.7398 17.9324 14.7398C17.9324 14.7398 19.6934 13.4706 19.6934 11.6926ZM13.1232 12.1776C13.0301 10.402 14.5072 8.81052 14.5072 8.81052C14.5072 8.81052 13.9696 9.54185 14.08 11.6488C14.1179 12.3723 14.4029 13.4486 14.7619 14.0832V8.925H16.2619V14.1279C16.6214 13.5352 16.8983 12.5246 16.9368 11.7906C17.0472 9.68361 16.5354 8.81052 16.5354 8.81052C16.5354 8.81052 18.0125 10.402 17.9194 12.1776C17.864 13.2351 17.0503 14.3534 16.4012 15.0851C16.7166 15.1554 17.1394 15.2411 17.7205 15.3559C17.7329 15.4202 17.6034 15.4172 17.3461 15.4113C17.062 15.4047 16.6221 15.3946 16.0453 15.4675C15.7801 15.7393 15.5955 15.9004 15.5955 15.9004C15.5955 15.9004 15.5664 15.861 15.5213 15.8064C15.4762 15.861 15.447 15.9004 15.447 15.9004C15.447 15.9004 15.2625 15.7393 14.9973 15.4675C14.4205 15.3946 13.9806 15.4047 13.6965 15.4113C13.4392 15.4172 13.3097 15.4202 13.3221 15.3559C13.9032 15.2411 14.326 15.1554 14.6414 15.0851C13.9923 14.3534 13.1786 13.2351 13.1232 12.1776Z" fill="#E31D1C"/>
</g>
</g>
</svg>
