<svg width="32" height="24" viewBox="0 0 32 24" fill="none" xmlns="http://www.w3.org/2000/svg">
<mask id="mask0_1012_35869" style="mask-type:luminance" maskUnits="userSpaceOnUse" x="0" y="0" width="32" height="24">
<rect width="32" height="24" fill="white"/>
</mask>
<g mask="url(#mask0_1012_35869)">
<path fill-rule="evenodd" clip-rule="evenodd" d="M0 0V24H32V0H0Z" fill="#F7FCFF"/>
<mask id="mask1_1012_35869" style="mask-type:luminance" maskUnits="userSpaceOnUse" x="0" y="0" width="32" height="24">
<path fill-rule="evenodd" clip-rule="evenodd" d="M0 0V24H32V0H0Z" fill="white"/>
</mask>
<g mask="url(#mask1_1012_35869)">
<path fill-rule="evenodd" clip-rule="evenodd" d="M0 0V8H32V0H0Z" fill="#BF2714"/>
<path fill-rule="evenodd" clip-rule="evenodd" d="M0 16V24H32V16H0Z" fill="#272727"/>
<path fill-rule="evenodd" clip-rule="evenodd" d="M5.33662 12.8112C6.24623 14.1166 5 15 5 15C5 15 6.08949 15 6.50674 14.1256H15.4241V12.1998C15.4241 12.1998 15.2376 11.275 14.4436 11.275C13.6495 11.275 13.4706 12.1998 13.4706 12.1998H10.3341L13.3688 9.52087L12.7788 9L9.40801 11.9756V12.6065H14.1931V12.2351C14.1931 12.2351 14.22 12.0201 14.4436 12.0201C14.6671 12.0201 14.6127 12.2351 14.6127 12.2351V13.0284H8.58261V11.9437L7.92968 12.2351V13.0284C7.92968 13.0284 7.13001 12.8112 6.62466 12.8112C6.11931 12.8112 6.08949 12.2351 6.08949 12.2351L5.33662 12.8112ZM17.4462 12.8853L17.9352 14.103H15.9893V9.21436L16.8101 9.47711V12.8853H17.4462ZM26.5106 12.8853L26.9997 14.103H25.0537V9.21436L25.8745 9.47711V12.8853H26.5106ZM24.1018 9.26514L23.5947 9.60832V12.8821H23.0782V10.2565L22.2274 10.747V12.8821H21.6565V11.3997L21.0097 11.8159V12.2184C21.0097 12.2184 19.7656 12.3041 19.7656 14.063H24.0967L24.1018 9.26514ZM7.49225 14.9654C7.64869 14.9654 7.77551 14.8535 7.77551 14.7154C7.77551 14.5773 7.64869 14.4653 7.49225 14.4653C7.33581 14.4653 7.20898 14.5773 7.20898 14.7154C7.20898 14.8535 7.33581 14.9654 7.49225 14.9654ZM21.9145 9.64166C21.6946 9.93158 21.0271 9.64166 21.0271 9.64166L22.9198 9.42239C22.7243 9.80398 21.9145 9.64166 21.9145 9.64166Z" fill="#009C4E"/>
</g>
</g>
</svg>
