<svg width="24" height="24" viewBox="0 0 24 24" fill="none" xmlns="http://www.w3.org/2000/svg">
<g id="vuesax/linear/close-square">
<path id="Union" fill-rule="evenodd" clip-rule="evenodd" d="M9 1.25C6.42603 1.25 4.42914 1.7602 3.09467 3.09467C1.7602 4.42914 1.25 6.42603 1.25 9V15C1.25 17.574 1.7602 19.5709 3.09467 20.9053C4.42914 22.2398 6.42603 22.75 9 22.75H15C17.574 22.75 19.5709 22.2398 20.9053 20.9053C22.2398 19.5709 22.75 17.574 22.75 15V9C22.75 6.42603 22.2398 4.42914 20.9053 3.09467C19.5709 1.7602 17.574 1.25 15 1.25H9ZM2.75 9C2.75 6.57397 3.2398 5.07086 4.15533 4.15533C5.07086 3.2398 6.57397 2.75 9 2.75H15C17.426 2.75 18.9291 3.2398 19.8447 4.15533C20.7602 5.07086 21.25 6.57397 21.25 9V15C21.25 17.426 20.7602 18.9291 19.8447 19.8447C18.9291 20.7602 17.426 21.25 15 21.25H9C6.57397 21.25 5.07086 20.7602 4.15533 19.8447C3.2398 18.9291 2.75 17.426 2.75 15V9ZM15.3217 10.6884L16.1785 9.81562L17.4668 11.1278C18.1777 10.4036 18.1777 9.22759 17.4668 8.50339L15.3156 6.31222L14.4588 7.18498V5.43947L14.0334 5L11.8823 7.19117L12.3137 7.63064H14.0334L13.1766 8.50339L13.8207 9.1595L12.0646 10.9483L9.55488 8.39198V7.51303L7.71971 5.64373L6 7.39543L7.84125 9.27092H8.69806L11.2077 11.8273L10.6912 12.3534H9.40296L6.1823 15.634C5.94531 15.8754 5.94531 16.2653 6.1823 16.5067L7.47057 17.819C7.70756 18.0604 8.09039 18.0604 8.32738 17.819L11.548 14.5384V13.2262L14.6776 10.0384L15.3217 10.6884ZM18.8397 15.9049L15.9348 13H15.3922L14 14.3922V14.9348L16.9049 17.8397C17.1187 18.0534 17.464 18.0534 17.6777 17.8397L18.8397 16.6777C19.0534 16.4694 19.0534 16.1187 18.8397 15.9049Z" fill="white"/>
</g>
</svg>
