<svg width="24" height="24" viewBox="0 0 24 24" fill="none" xmlns="http://www.w3.org/2000/svg">
<g id="vuesax/linear/home-2">
<g id="vuesax/linear/home-2_2">
<g id="home-2">
<path id="Vector" d="M3.63 7.04016C2.73 7.74016 2 9.23016 2 10.3602V17.7702C2 20.0902 3.89 21.9902 6.21 21.9902H17.79C20.11 21.9902 22 20.0902 22 17.7802V10.5002C22 9.29016 21.19 7.74016 20.2 7.05016L14.02 2.72016C12.62 1.74016 10.37 1.79016 9.02 2.84016L3.63 7.04016Z" stroke="white" stroke-width="1.5" stroke-linecap="round" stroke-linejoin="round"/>
</g>
</g>
<path id="Vector_2" fill-rule="evenodd" clip-rule="evenodd" d="M11.8179 12.7724C9.9477 12.7724 8.43164 11.2564 8.43164 9.38622C8.43164 7.51606 9.9477 6 11.8179 6C13.688 6 15.2041 7.51606 15.2041 9.38622C15.2041 11.2564 13.688 12.7724 11.8179 12.7724Z" stroke="white" stroke-width="1.01586" stroke-linecap="round" stroke-linejoin="round"/>
<path id="Vector_3" d="M6 19.5449C6 16.924 8.60738 14.8042 11.8175 14.8042C12.4677 14.8042 13.0975 14.8922 13.6867 15.0548" stroke="white" stroke-width="1.01586" stroke-linecap="round" stroke-linejoin="round"/>
<path id="Vector_4" d="M18.197 18.231C18.0548 18.4749 17.8719 18.6916 17.662 18.8677C17.1879 19.2943 16.5649 19.5449 15.8808 19.5449C14.8921 19.5449 14.032 19.0166 13.5647 18.231C13.3141 17.8247 13.1719 17.3439 13.1719 16.8359C13.1719 15.9826 13.5647 15.2173 14.1877 14.7229C14.655 14.3504 15.2442 14.127 15.8808 14.127C17.3776 14.127 18.5898 15.3392 18.5898 16.8359C18.5898 17.3439 18.4476 17.8247 18.197 18.231Z" stroke="white" stroke-width="1.01586" stroke-linecap="round" stroke-linejoin="round"/>
<path id="Vector_5" d="M14.8242 16.836L15.4947 17.5065L16.9372 16.1724" stroke="white" stroke-width="1.01586" stroke-linecap="round" stroke-linejoin="round"/>
</g>
</svg>
